<?xml version="1.0" encoding="UTF-8" standalone="no"?>
<!-- Created with Inkscape (http://www.inkscape.org/) -->

<svg
   version="1.1"
   id="svg1"
   width="960"
   height="350"
   viewBox="0 0 960 350"
   sodipodi:docname="logo_small.svg"
   inkscape:version="1.4.2 (f4327f4, 2025-05-13)"
   xmlns:inkscape="http://www.inkscape.org/namespaces/inkscape"
   xmlns:sodipodi="http://sodipodi.sourceforge.net/DTD/sodipodi-0.dtd"
   xmlns="http://www.w3.org/2000/svg"
   xmlns:svg="http://www.w3.org/2000/svg">
  <defs
     id="defs1" />
  <sodipodi:namedview
     id="namedview1"
     pagecolor="#505050"
     bordercolor="#ffffff"
     borderopacity="1"
     inkscape:showpageshadow="0"
     inkscape:pageopacity="0"
     inkscape:pagecheckerboard="1"
     inkscape:deskcolor="#505050"
     inkscape:zoom="1.85"
     inkscape:cx="787.2973"
     inkscape:cy="174.86486"
     inkscape:window-width="1920"
     inkscape:window-height="1009"
     inkscape:window-x="-8"
     inkscape:window-y="332"
     inkscape:window-maximized="1"
     inkscape:current-layer="g1" />
  <g
     inkscape:groupmode="layer"
     inkscape:label="Image"
     id="g1">
    <path
       style="fill:#000000"
       d="M 118,309.32293 C 98.45796,305.94393 80.501607,290.47896 73.191096,270.73109 L 70.5142,263.5 70.226857,172.83107 C 69.979907,94.90773 70.152668,81.131581 71.45584,74.831065 75.589466,54.845987 90.052026,38.176195 109.39796,31.098337 L 116.5,28.5 h 84 c 66.20926,0 85.05897,0.278487 89,1.314893 20.49009,5.388454 37.24455,22.272942 41.96256,42.28822 2.24313,9.516047 2.25851,184.212847 0.0171,193.720647 -4.45166,18.88306 -18.29836,33.91968 -37.80347,41.05213 L 286.5,309.5 l -83,0.1276 c -45.65,0.0702 -84.125,-0.0669 -85.5,-0.30467 z m 170,-21.21407 c 11.25708,-4.37508 19.18183,-12.50515 23.12498,-23.72413 1.84196,-5.24071 1.90543,-8.96946 1.64544,-96.66785 L 312.5,76.5 309.62583,70.277627 C 306.46149,63.427039 298.92873,55.524283 292.42663,52.233639 284.3882,48.165475 280.80034,48 200.63228,48 115.6144,48 117.7241,47.859706 107.77763,54.174772 101.46252,58.18427 97.34221,63.061168 93.602637,70.952633 L 90.5,77.5 v 91.5 91.5 l 2.320599,5.74666 c 3.047406,7.5465 10.498341,15.57367 18.376771,19.79796 5.16567,2.76976 7.74578,3.47643 14.30263,3.91738 4.4,0.2959 41.525,0.48095 82.5,0.41122 73.564,-0.12518 74.5691,-0.15363 80,-2.26436 z M 124.24086,260.0054 c -1.79253,-1.09292 -4.15334,-3.45373 -5.24626,-5.24626 -1.93767,-3.17803 -1.98722,-5.19032 -1.99086,-80.86126 L 117,96.295766 l 2.26993,-3.397883 c 4.82936,-7.229109 1.71201,-6.948281 73.90731,-6.657966 63.85428,0.256774 64.71317,0.286701 67.5,2.352031 1.55252,1.150571 3.855,3.608907 5.11662,5.462968 l 2.29386,3.371021 -0.29386,48.537033 c -0.29198,48.22677 -0.30856,48.56899 -2.59351,53.53703 -1.77361,3.85626 -8.51316,11.23041 -29.46286,32.23707 -14.93977,14.98038 -28.59793,27.91788 -30.35148,28.75 -2.66976,1.26688 -9.26226,1.51232 -40.53714,1.50919 -35.5045,-0.004 -37.50981,-0.10186 -40.60801,-1.99086 z M 191,217.5 c 0.52429,-25.16608 0.67315,-25.99353 5.48673,-30.5 l 2.67038,-2.5 23.92145,-0.30052 L 247,183.89897 V 144.94948 106 h -55 -55 v 68.01633 68.01634 L 163.75,241.76633 190.5,241.5 Z m 44.10165,-11.75 c 0.89959,-1.62511 0.0742,-1.75 -11.56647,-1.75 H 211 v 13.23369 13.23369 l 11.56647,-11.48369 c 6.36156,-6.31603 12.00239,-12.27119 12.53518,-13.23369 z m 307.80729,87.35362 c -15.42932,-4.93653 -25.48562,-18.16829 -26.64314,-35.05618 -1.68343,-24.56067 11.74751,-43.18222 34.01919,-47.16646 15.87433,-2.83981 31.91714,4.23497 40.48458,17.85345 5.06869,8.05701 6.46288,13.97741 6.01558,25.5451 -0.45072,11.65632 -2.68448,18.68171 -8.26287,25.98749 -4.23795,5.55029 -12.32246,11.00272 -19.45378,13.12021 -7.12894,2.11679 -19.06135,1.98742 -26.15956,-0.28361 z m 23.74501,-20.64115 c 7.3401,-4.30128 11.1815,-16.83524 8.30661,-27.10335 -1.7339,-6.19287 -8.02655,-12.78021 -13.64273,-14.28163 -4.93909,-1.3204 -11.33823,-0.18947 -15.23826,2.69309 -6.35517,4.69718 -9.72207,17.48343 -7.12815,27.07006 1.42048,5.2498 8.05909,12.78947 12.43128,14.11858 4.39259,1.3353 10.41103,0.35133 15.27125,-2.49675 z M 628,294.06487 c -11.81975,-3.60843 -21.21942,-14.40671 -24.44166,-28.0784 -4.14772,-17.59843 0.46326,-37.22105 11.03646,-46.96709 6.91564,-6.37462 12.37523,-8.48992 21.9052,-8.48712 8.58128,0.003 12.89549,1.56386 19.36647,7.00884 L 659,220.17779 V 201.08889 182 h 11 11 v 55.53498 55.53499 L 670.75,292.78498 660.5,292.5 l -0.5,-3.84241 -0.5,-3.8424 -2.5,2.72475 c -4.33486,4.72457 -11.55369,7.45082 -19.5,7.36434 -3.85,-0.0419 -8.125,-0.41964 -9.5,-0.83941 z m 22.09633,-20.61468 c 7.19512,-3.72075 11.74782,-14.45083 10.03772,-23.65755 -1.7788,-9.57656 -4.56358,-13.89492 -11.16023,-17.30618 -4.40369,-2.27724 -12.56834,-1.62344 -16.72963,1.33966 -7.3176,5.21059 -10.45258,20.16958 -6.26634,29.90074 1.20108,2.792 3.22975,6.059 4.50816,7.25999 5.10881,4.79949 13.14148,5.8085 19.61032,2.46334 z m 60.78595,20.16923 c -8.96975,-3.20534 -14.06867,-8.51115 -17.2859,-17.98729 C 692.27951,271.75337 692,265.85869 692,241.96505 V 213 h 10.43946 10.43946 l 0.31054,26.29688 c 0.27559,23.33744 0.5136,26.60647 2.11487,29.04775 5.76572,8.79031 18.33134,8.61343 24.44567,-0.34412 2.19031,-3.20883 2.25,-3.98213 2.25,-29.14839 V 213 h 11 11 v 40 40 h -10.38871 -10.38871 l -0.66447,-3.54191 -0.66446,-3.54192 -4.02225,3.18569 c -2.21224,1.75212 -5.67581,3.77623 -7.69683,4.49802 -4.69719,1.67755 -14.62441,1.68761 -19.29229,0.0195 z M 798.5,293.60118 c -9.17212,-2.90076 -15.8908,-8.0554 -21.09341,-16.18308 -5.03605,-7.86747 -6.70846,-14.99277 -6.17418,-26.30516 0.7212,-15.27026 5.59197,-25.22873 16.31215,-33.35086 7.04876,-5.34048 13.27998,-7.26127 23.45544,-7.23021 7.05665,0.0215 9.47096,0.47613 14.21807,2.6771 10.13259,4.69791 20.06811,16.19091 20.95638,24.24149 0.32527,2.94791 0.31739,2.95242 -9.12008,5.22104 -5.1951,1.24881 -9.60237,2.11383 -9.79394,1.92226 -0.19157,-0.19157 -1.34104,-2.3124 -2.55437,-4.71296 C 821.5955,233.72661 817.10627,231 810.08425,231 c -7.06342,0 -11.93839,3.03085 -14.85496,9.23559 -4.89025,10.40356 -3.69676,22.1322 2.99035,29.38687 8.40985,9.1236 20.41287,7.92758 27.01424,-2.69178 1.68579,-2.71188 3.56031,-4.92377 4.1656,-4.91533 1.6743,0.0234 16.89275,3.94354 17.44222,4.49302 1.01945,1.01945 -2.25999,8.5108 -5.74322,13.11946 -4.99361,6.60703 -12.28855,11.88136 -19.06165,13.7818 -6.69514,1.87856 -17.91385,1.96986 -23.53683,0.19155 z m 76.32772,-1.06716 c -6.52263,-1.79689 -10.27094,-4.76596 -12.99189,-10.291 -2.20918,-4.48585 -2.35375,-6.00364 -2.66639,-27.99302 L 858.83887,231 H 853.41944 848 v -9 -9 h 5.46725 5.46725 l 0.28275,-11.07516 0.28275,-11.07516 10,-0.17484 10,-0.17484 0.28275,11.25 0.28275,11.25 h 7.87935 7.87935 l 0.55141,3.75 c 0.30327,2.0625 0.42174,6 0.26326,8.75 l -0.28814,5 -8.28067,0.29214 -8.28066,0.29215 0.3553,19.3531 c 0.4252,23.16042 0.48531,23.30023 10.21979,23.76786 L 896.5,274.5 l 0.28566,9.10919 0.28566,9.10919 -4.67523,0.64081 c -6.67158,0.91444 -12.19546,0.65499 -17.56837,-0.82517 z M 382.24145,238.28283 382.5,183.5 l 20.97392,-0.27097 c 11.53565,-0.14903 24.01097,0.1499 27.72292,0.6643 13.05696,1.80941 22.21232,8.13209 27.56881,19.03899 2.49786,5.08613 2.73435,6.56232 2.73435,17.06768 0,10.29816 -0.27113,12.07479 -2.59433,17 -3.29908,6.99408 -9.51374,13.18169 -16.74112,16.66823 -5.23284,2.52435 -6.88395,2.7745 -21.66455,3.28219 l -16,0.54958 -0.0877,17.5 -0.0877,17.5 -11.17086,0.28283 -11.17086,0.28283 z m 48.77382,-3.5725 c 10.42307,-5.51186 11.33416,-20.88858 1.66531,-28.1058 -2.42693,-1.81156 -4.49941,-2.15143 -14.88729,-2.44141 -9.27412,-0.2589 -12.26262,-0.0274 -12.90916,1 -0.46271,0.73528 -0.80646,8.19938 -0.76389,16.58688 l 0.0774,15.25 h 11.2439 c 9.7907,0 11.80349,-0.29592 15.57373,-2.28967 z M 469,253 v -40 l 9.5,-0.15 c 5.225,-0.0825 10.0625,-0.195 10.75,-0.25 0.78598,-0.0629 1.43561,1.74682 1.75,4.87503 0.48553,4.83108 0.53501,4.89736 1.71005,2.29063 2.46819,-5.47549 15.26775,-10.81327 21.9236,-9.14276 2.4112,0.60517 2.42753,0.69352 2.14801,11.61762 l -0.28166,11.00781 -6.73351,0.23204 c -5.35605,0.18457 -7.54945,0.772 -10.72212,2.87157 -7.18635,4.7557 -7.50368,6.08392 -7.85979,32.89806 L 490.86916,293 H 479.93458 469 Z m 33.5,-93.0391 C 483.45201,156.0562 470.88267,143.01718 467.95077,124.12067 463.60504,96.111756 483.74086,72.023738 511.5,72.023738 c 17.14841,0 31.97575,9.393455 39.41527,24.970477 3.52255,7.375595 3.58473,7.722995 3.58473,20.028455 0,12.15445 -0.0973,12.72035 -3.31035,19.24531 -8.81186,17.89505 -29.01494,27.72609 -48.68965,23.69292 z m 20.71384,-23.64367 c 2.57454,-1.85761 5.4226,-5.23396 7.13199,-8.45491 2.54716,-4.79954 2.79978,-6.11212 2.40697,-12.50661 -0.78554,-12.7879 -7.81254,-20.887126 -19.13591,-22.055801 -9.78532,-1.009935 -18.40491,4.16184 -22.24199,13.345241 -1.5957,3.81906 -1.79704,13.29764 -0.38988,18.35485 1.35305,4.86274 6.59909,10.89616 11.44424,13.16191 6.30377,2.94784 15.24183,2.15457 20.78458,-1.84468 z m 61.17151,22.06561 c -6.33287,-2.24597 -11.9027,-7.65745 -15.59335,-15.15006 L 565.5,136.54951 565.1857,105.27475 564.87139,74 H 576.4357 588 l 0.002,26.75 c 0.001,23.46394 0.21634,27.17995 1.75,30.25 2.30752,4.61913 9.79186,8.49584 14.64446,7.58549 4.45362,-0.83551 9.51233,-4.32575 12.33019,-8.50717 C 618.94856,126.78056 619,126.10733 619,100.31937 V 73.934498 l 11.22807,0.282751 11.22806,0.282751 0.0219,42 0.0219,42 H 631 620.5 l -0.30524,-4.76107 -0.30525,-4.76107 -2.46822,2.93332 c -1.35753,1.61332 -4.79602,4.0933 -7.6411,5.51107 -4.33536,2.1604 -6.47681,2.56497 -13.22653,2.4988 -4.42951,-0.0434 -9.90525,-0.73562 -12.16831,-1.53821 z M 418,137.20261 v -21.79739 l -6.14583,-9.95261 C 397.40354,82.051132 378,48.864016 378,47.54966 378,47.247347 383.83909,47 390.97574,47 h 12.97575 l 3.77425,6.026219 c 2.07585,3.314421 7.80414,13.218466 12.72956,22.00899 7.03082,12.548107 9.21026,15.712217 10.14173,14.723781 C 431.63695,88.655482 439.56356,74.741029 450.96776,54 l 3.57395,-6.5 13.22914,-0.279025 C 475.04688,47.067511 481,47.184844 481,47.481714 c 0,0.29687 -9,15.672133 -20,34.167251 L 441,115.27645 V 137.13823 159 H 429.5 418 Z m 238.66667,21.13072 C 656.3,157.96667 656,138.84167 656,115.83333 V 74 h 11 11 v 5.5 c 0,5.458387 1.29378,7.300453 2.487,3.540952 0.93155,-2.935033 7.95646,-8.069195 13.20011,-9.647301 C 699.37308,71.682427 706.1889,71.588903 707.8,73.2 c 0.79317,0.79317 1.2,5.07005 1.2,12.615223 v 11.415224 l -5.25,-0.646107 c -11.29647,-1.390232 -21.2555,4.42339 -23.6125,13.78389 C 679.45842,113.0651 679,123.77482 679,136.94282 V 159 h -10.83333 c -5.95834,0 -11.13334,-0.3 -11.5,-0.66667 z"
       id="path1" />
    <path
       style="fill:#ffffff;stroke-width:0.540541"
       d="m 119.45946,308.8951 c -13.08237,-1.07964 -28.229186,-10.41764 -37.663336,-23.21942 -4.099841,-5.56333 -5.938246,-8.99276 -8.825823,-16.46403 l -2.473078,-6.39879 0.167665,-92.48751 0.167665,-92.487512 1.473528,-5.405406 C 74.993116,62.575463 79.97119,53.703896 86.91993,46.388679 93.677137,39.275098 100.61902,34.803286 111.1335,30.790808 l 5.05677,-1.929736 85.14811,0.192207 c 96.97854,0.218913 87.21326,-0.302966 98.66162,5.272696 17.88164,8.70885 30.17743,25.381176 31.6912,42.971322 0.80361,9.337941 1.22336,141.913113 0.52541,165.945943 -0.62433,21.4982 -0.82887,23.26773 -3.48995,30.19259 -2.59479,6.7524 -6.16614,12.06649 -12.24017,18.21311 -7.74087,7.83337 -13.40917,11.37558 -25.40541,15.87624 l -5.13513,1.92656 -80.81081,-0.0776 c -44.44595,-0.0427 -83,-0.25824 -85.67568,-0.47905 z m 164.86486,-19.34892 c 1.48649,-0.33729 5.00005,-1.74509 7.80791,-3.12844 4.20141,-2.06991 5.93469,-3.33911 9.7906,-7.16917 3.92552,-3.8992 5.09325,-5.48678 7.20033,-9.78911 1.38322,-2.82432 2.81529,-6.5946 3.18238,-8.37838 0.51732,-2.51383 0.63662,-23.70046 0.53043,-94.2037 l -0.137,-90.960465 -2.36821,-4.715399 c -5.57268,-11.095864 -14.3649,-18.980012 -23.95032,-21.476695 -5.69687,-1.483847 -23.78658,-1.872067 -86.92098,-1.865396 -76.78356,0.0081 -80.91153,0.199141 -88.37838,4.089845 -8.16222,4.25304 -12.811504,9.278404 -17.862183,19.307048 L 90,77.647771 v 91.302549 91.30255 l 2.043014,4.73843 c 6.39629,14.83513 18.793686,24.20002 33.362396,25.2017 1.48648,0.1022 37.24324,0.13646 79.45945,0.0761 54.92787,-0.0785 77.52538,-0.2841 79.45946,-0.72296 z"
       id="path2" />
    <path
       style="fill:#ffffff;stroke-width:0.540541"
       d="m 132.8999,261.41594 c -5.39254,-0.334 -6.29098,-0.54095 -8.63193,-1.98824 -3.42135,-2.11526 -5.69273,-5.39299 -6.24556,-9.01272 -0.23918,-1.56608 -0.58735,-36.77984 -0.7737,-78.25282 l -0.33882,-75.405403 2.62613,-3.768559 c 3.76638,-5.404822 4.55214,-5.638775 21.27479,-6.33435 17.9664,-0.747307 115.21914,0.192224 117.56757,1.135788 1.97946,0.795318 5.74036,4.35997 7.94963,7.534809 l 1.63631,2.351472 -0.37337,43.594473 c -0.20536,23.97696 -0.58727,46.18771 -0.8487,49.35723 -0.56277,6.82304 -1.44188,8.99342 -5.79044,14.29565 -5.22078,6.36572 -45.37097,46.61518 -52.72354,52.8539 -2.03205,1.72421 -3.90823,2.81221 -5.40073,3.1319 -2.79818,0.59936 -61.55759,1.02528 -69.92764,0.50687 z m 57.62895,-19.89775 c 0.14221,-0.12845 0.42605,-8.54962 0.63075,-18.7137 0.4038,-20.05072 0.75444,-26.51726 1.61492,-29.78273 0.35742,-1.35636 1.6355,-3.24418 3.56806,-5.27027 l 3.01117,-3.1569 h 13.34431 c 7.33937,0 18.12667,-0.16016 23.97177,-0.35592 l 10.62747,-0.35592 v -39.10354 -39.10353 h -55.40541 -55.4054 v 68.01801 c 0,37.40992 0.13458,68.15261 0.29908,68.3171 0.34522,0.34523 53.35359,-0.14064 53.74328,-0.4926 z M 223.41458,218.442 c 7.47319,-7.54032 11.99083,-12.49963 11.99083,-13.16312 0,-0.94502 -0.50091,-1.10358 -4.45946,-1.41174 -2.45271,-0.19093 -8.0473,-0.3486 -12.43244,-0.35039 l -7.97297,-0.003 v 13.51352 c 0,7.43243 0.19872,13.51351 0.44161,13.51351 0.24289,0 5.83748,-5.44435 12.43243,-12.09854 z"
       id="path3" />
    <path
       style="fill:#ffffff;stroke-width:0.540541"
       d="m 382.43409,247.43243 c 9e-4,-24.89865 0.16167,-49.48899 0.35726,-54.64521 l 0.35561,-9.37494 24.10219,0.234 c 27.05372,0.26267 28.38369,0.42703 36.77986,4.54536 8.3088,4.07548 15.45556,13.58643 16.82864,22.39566 0.96001,6.15906 0.38295,19.4331 -1.01437,23.33353 -3.24973,9.07122 -12.65978,18.18511 -21.6398,20.95875 -3.59499,1.11038 -17.3632,2.13184 -28.87916,2.14255 l -5.27027,0.005 v 17.48604 17.48604 l -5.27027,0.349 c -2.89864,0.19195 -7.76351,0.35026 -10.81081,0.3518 l -5.54054,0.003 z m 45.79026,-11.27758 c 4.14449,-1.39756 7.32195,-4.07109 9.38481,-7.89642 1.68173,-3.11855 1.82756,-3.76591 1.7995,-7.98816 -0.0346,-5.2081 -1.08123,-8.21104 -4.03392,-11.57397 -3.4997,-3.98594 -4.73515,-4.29862 -17.80717,-4.50692 -7.23553,-0.1153 -11.92763,0.0206 -12.43243,0.35999 -0.68363,0.45966 -0.83672,3.04971 -0.97598,16.51142 l -0.16516,15.96624 h 10.82195 c 8.52891,0 11.36998,-0.18481 13.4084,-0.87218 z"
       id="path4" />
    <path
       style="fill:#ffffff;stroke-width:0.540541"
       d="m 418.10811,136.8202 v -21.82845 l -7.09736,-11.54993 c -16.98033,-27.633038 -32.63313,-54.728143 -32.1076,-55.578465 0.22718,-0.367582 4.66772,-0.566058 12.66452,-0.566058 h 12.31468 l 5.70669,9.594595 c 3.13868,5.277027 8.31244,14.168846 11.49723,19.759598 C 427.05535,87.129896 429.03142,90 430.27674,90 c 0.81077,0 5.15604,-7.338104 16.54199,-27.935372 l 7.77586,-14.066603 6.75676,-0.348172 c 10.10817,-0.520868 18.91892,-0.435784 18.91892,0.182698 0,0.513904 -14.08649,24.57639 -31.28898,53.447709 l -8.17048,13.71269 v 21.82785 21.82785 h -11.35135 -11.35135 z"
       id="path5" />
    <path
       style="fill:#ffffff;stroke-width:0.540541"
       d="m 505.94595,160.19503 c -16.59323,-2.10067 -29.98983,-12.37841 -35.28052,-27.06683 -2.36454,-6.56463 -3.02083,-11.13714 -2.70935,-18.87644 0.48271,-11.99339 4.39564,-20.782602 13.12034,-29.47087 4.35303,-4.334846 5.66756,-5.28488 10.59524,-7.657356 7.77453,-3.743122 11.64656,-4.633981 19.94996,-4.590002 8.24834,0.04369 13.0166,1.186253 19.99764,4.791824 8.33737,4.306081 14.88675,11.325966 19.46111,20.85919 2.88372,6.009834 3.43117,9.785054 3.12431,21.545184 -0.22545,8.63995 -0.36839,9.75269 -1.64992,12.84415 -4.64537,11.20618 -14.27837,20.72714 -25.25324,24.95949 -4.07336,1.57086 -13.10606,3.35612 -16.22044,3.20588 -0.74324,-0.0359 -3.05405,-0.28075 -5.13513,-0.54422 z m 13.56614,-21.60646 c 4.17733,-1.55505 8.94198,-6.31852 11.56899,-11.56615 1.83805,-3.67162 1.88997,-3.94839 1.82447,-9.72512 -0.0785,-6.92398 -1.27306,-11.27464 -4.33309,-15.78143 -3.26179,-4.803959 -7.40996,-7.248377 -14.04834,-8.278358 -4.58869,-0.711959 -10.34563,0.277605 -13.96924,2.401181 -3.32951,1.951222 -6.90193,5.790637 -8.7105,9.361487 -1.53036,3.02155 -1.57411,3.33327 -1.57411,11.21604 0,7.6647 0.0792,8.27713 1.44868,11.19895 2.64086,5.63444 8.26663,10.54607 13.91854,12.15171 3.37608,0.9591 9.90718,0.49858 13.8746,-0.97831 z"
       id="path6" />
    <path
       style="fill:#ffffff;stroke-width:0.540541"
       d="m 469.45946,253.0541 v -39.64859 l 9.86486,-0.31129 c 5.42568,-0.1712 10.05165,-0.13039 10.27995,0.0907 0.22829,0.22109 0.67202,1.96655 0.98607,3.8788 0.8501,5.17631 0.86935,5.19229 2.79215,2.31895 1.88881,-2.82256 5.55138,-5.33332 10.66008,-7.30771 3.74775,-1.44841 11.10363,-1.72834 11.91279,-0.45335 0.28301,0.44595 0.5183,5.46326 0.52285,11.14959 l 0.008,10.33879 -6.35847,0.2267 c -5.17966,0.18467 -6.82438,0.45224 -8.87155,1.44326 -3.58326,1.73463 -7.20322,5.11022 -8.22875,7.67326 -1.18458,2.96057 -1.92591,10.52089 -1.93727,19.75692 -0.005,4.18855 -0.16967,12.76288 -0.3656,19.05405 l -0.35623,11.43851 h -10.45458 -10.45458 z"
       id="path7" />
    <path
       style="fill:#ffffff;stroke-width:0.540541"
       d="m 551.07105,294.32387 c -7.47372,-0.71837 -13.44808,-3.05661 -19.83404,-7.76264 -4.25994,-3.1393 -7.79161,-7.54241 -10.4654,-13.04772 -3.41622,-7.03398 -4.02152,-10.08389 -3.96933,-20 0.0408,-7.75386 0.19511,-9.14058 1.49142,-13.40356 3.29,-10.81937 9.01267,-18.35043 18.10105,-23.82105 8.89264,-5.3528 21.10379,-7.06907 31.10869,-4.37231 13.64504,3.67793 25.40973,15.93992 28.241,29.43476 1.17408,5.59607 0.74209,19.10031 -0.79789,24.94245 -2.88696,10.95206 -9.65068,19.04815 -20.43449,24.45982 -6.28918,3.15612 -14.59242,4.42077 -23.44101,3.57025 z m 12.18911,-20.0523 c 6.08005,-2.27483 9.35272,-6.0935 11.67372,-13.6213 0.92174,-2.98953 1.09455,-4.70744 0.92749,-9.22049 -0.18232,-4.9251 -0.4001,-5.94208 -1.9441,-9.0784 -2.15097,-4.36923 -6.49739,-8.83471 -10.31817,-10.60081 -2.57252,-1.18911 -3.42722,-1.30917 -7.83784,-1.10106 -7.58844,0.35805 -11.5057,2.77273 -14.63633,9.02214 -3.88901,7.76331 -4.32225,18.40075 -0.99894,24.52725 2.86915,5.28928 8.25426,10.24679 12.22979,11.2587 2.42364,0.6169 7.58648,0.0554 10.90438,-1.18603 z"
       id="path8" />
    <path
       style="fill:#ffffff;stroke-width:0.540541"
       d="m 588.91892,158.98792 c -5.73008,-0.88767 -8.8001,-2.55566 -13.51351,-7.34213 -3.11044,-3.15864 -4.70068,-5.37055 -6.83211,-9.50296 l -2.77806,-5.38607 -0.37495,-31.21622 -0.37495,-31.216216 h 11.36015 11.36015 l 0.17123,26.891896 0.17124,26.89189 1.25833,2.55495 c 1.50369,3.05316 3.66696,4.98653 7.6047,6.79654 5.86296,2.69495 12.01081,1.1775 17.51032,-4.32202 4.61309,-4.61308 4.41585,-3.20997 4.60125,-32.73217 l 0.16378,-26.081086 h 6.10453 c 3.35748,0 8.33108,0.158046 11.05243,0.351213 l 4.9479,0.351212 v 41.540681 41.54068 h -10.1968 -10.19679 l -0.34375,-2.50788 c -0.18905,-1.37933 -0.34374,-3.4469 -0.34374,-4.59459 0,-1.1477 -0.10576,-2.08672 -0.23502,-2.08672 -0.12926,0 -1.5279,1.28826 -3.10811,2.86281 -7.07582,7.0505 -15.32031,9.17171 -28.00822,7.20619 z"
       id="path9" />
    <path
       style="fill:#ffffff;stroke-width:0.540541"
       d="m 658.02845,158.28672 c -0.48976,-0.13008 -1.03374,-0.77078 -1.20884,-1.42378 -0.1751,-0.65299 -0.32168,-19.49132 -0.32574,-41.86294 l -0.007,-40.675676 h 10.54054 10.54054 l 0.0639,3.648649 c 0.0795,4.536072 0.56123,6.891892 1.40926,6.891892 0.35848,0 1.36013,-1.116952 2.22589,-2.482115 1.90609,-3.005594 7.59304,-6.949884 12.24684,-8.49403 6.8763,-2.281574 13.80113,-2.008029 14.55344,0.57489 0.19417,0.666636 0.50271,6.043666 0.68566,11.948955 l 0.33263,10.73689 -1.56965,-0.303047 c -6.65373,-1.284618 -13.30482,-0.621696 -18.04988,1.799054 -5.0669,2.584938 -8.59119,7.200908 -9.75137,12.771948 -0.302,1.45015 -0.70134,12.67043 -0.88743,24.93394 l -0.33835,22.2973 -9.78482,-0.0627 c -5.38165,-0.0345 -10.18553,-0.16914 -10.67529,-0.29923 z"
       id="path10" />
    <path
       style="fill:#ffffff;stroke-width:0.540541"
       d="m 632.03971,294.32856 c -9.97731,-0.98592 -19.83822,-8.74428 -25.08195,-19.73397 -5.02614,-10.53365 -5.9526,-26.08933 -2.26492,-38.02867 2.18614,-7.07787 4.71248,-11.37209 9.64969,-16.40226 5.98719,-6.09993 10.36367,-8.34086 17.57392,-8.99856 10.35252,-0.94433 16.66733,0.76412 23.33014,6.31189 1.84509,1.5363 3.48698,2.79328 3.64865,2.79328 0.16167,0 0.29395,-8.51351 0.29395,-18.91892 V 182.43243 H 670 680.81081 v 55.13514 55.13513 h -5.0521 c -2.77865,0 -7.26714,-0.15722 -9.97442,-0.34939 -5.50586,-0.39082 -4.95881,0.12632 -5.80774,-5.49028 l -0.3516,-2.32616 -2.78545,2.63157 c -6.4595,6.10264 -13.86477,8.24067 -24.79979,7.16012 z m 15.96138,-19.70366 c 3.38451,-1.20724 6.21378,-3.51386 8.48875,-6.92066 3.89332,-5.83029 5.09493,-12.55056 3.51449,-19.65559 -1.8828,-8.46429 -5.06899,-13.05507 -10.91984,-15.73368 -2.65231,-1.21427 -3.49298,-1.33382 -7.91782,-1.12599 -5.79491,0.27219 -8.25339,1.30434 -11.3983,4.78537 -3.79941,4.20549 -5.71432,10.25397 -5.71432,18.04937 0,9.6977 4.70807,17.98023 11.67067,20.53127 2.68916,0.9853 9.59972,1.02465 12.27637,0.0699 z"
       id="path11" />
    <path
       style="fill:#ffffff;stroke-width:0.540541"
       d="m 716.48649,294.25067 c -6.64086,-0.56338 -12.02987,-3.23926 -16.67713,-8.28094 -2.61786,-2.84005 -5.71346,-8.93172 -6.60455,-12.99676 -0.36489,-1.6646 -0.70219,-13.65468 -0.87815,-31.21621 l -0.2857,-28.51352 h 10.33087 10.33087 l 0.0291,12.02703 c 0.0425,17.55023 0.84855,39.91533 1.49795,41.56157 0.95593,2.42332 4.01272,5.44201 6.84739,6.76205 5.65104,2.63155 12.71398,1.23289 17.1397,-3.39414 3.91945,-4.09774 3.84224,-3.50182 4.10525,-31.68624 l 0.23581,-25.27027 h 10.4778 10.4778 v 39.72973 39.72973 h -9.94216 c -11.11829,0 -10.30327,0.32229 -10.91879,-4.31774 -0.19767,-1.49011 -0.5105,-2.70445 -0.69517,-2.69855 -0.18467,0.006 -1.87118,1.21164 -3.74779,2.67941 -6.76729,5.29295 -11.99777,6.7099 -21.72311,5.88485 z"
       id="path12" />
    <path
       style="fill:#ffffff;stroke-width:0.540541"
       d="m 804.24705,294.26482 c -14.35568,-1.30584 -27.71432,-13.3436 -31.57972,-28.45717 -2.07356,-8.10754 -1.17021,-22.49529 1.92942,-30.73027 3.20262,-8.50857 10.3536,-16.29973 18.9304,-20.6251 4.22752,-2.13198 7.03535,-2.86551 12.8242,-3.35025 7.74005,-0.64813 13.57478,0.0754 18.27691,2.26647 9.78545,4.55973 18.58861,14.03143 20.77184,22.34932 0.81135,3.09119 0.80247,3.23207 -0.25849,4.10306 -1.04895,0.86113 -10.77496,3.41116 -15.45929,4.05321 l -2.21879,0.30412 -2.51316,-4.35707 c -3.82621,-6.63352 -7.42769,-8.85841 -14.40983,-8.90194 -9.68992,-0.0604 -14.81935,4.39506 -17.61047,15.29665 -0.653,2.55049 -0.83091,4.93693 -0.64926,8.70922 0.21205,4.40358 0.51498,5.76394 1.98619,8.91929 4.34923,9.32796 13.40863,14.03773 21.70287,11.28283 3.17076,-1.05316 7.53393,-4.9837 10.66115,-9.60404 0.96228,-1.42173 2.13628,-2.73335 2.60889,-2.91471 0.93515,-0.35885 16.39763,3.35342 17.1653,4.12109 1.1405,1.14051 -2.89411,9.44236 -7.05909,14.52517 -2.79556,3.41161 -8.34857,7.83137 -12.25662,9.75529 -5.9321,2.92037 -13.95379,4.06338 -22.84245,3.25483 z"
       id="path13" />
    <path
       style="fill:#ffffff;stroke-width:0.540541"
       d="m 879.48499,293.18308 c -8.66127,-1.26211 -14.14352,-4.80183 -17.33236,-11.19099 -2.0583,-4.12401 -2.32405,-7.06827 -2.74996,-30.46667 l -0.38197,-20.98488 h -5.32116 -5.32116 v -8.64865 -8.64865 h 5.34594 5.34594 l 0.39384,-11.02879 0.39384,-11.02878 9.53049,-0.21096 c 5.24177,-0.11603 9.58372,-0.18768 9.64878,-0.15923 0.0651,0.0285 0.28562,5.08634 0.49013,11.23975 l 0.37184,11.18801 h 7.72121 c 4.95065,0 7.85081,0.2097 8.08239,0.58439 0.66189,1.07096 0.92585,13.66605 0.31879,15.21147 l -0.57803,1.47152 -7.72177,0.1501 -7.72177,0.15009 -0.15204,10 c -0.20385,13.40821 0.57675,27.24141 1.68636,29.88432 1.11263,2.65011 2.98475,3.40083 9.47042,3.79764 2.78234,0.17023 5.13224,0.3844 5.22199,0.47594 0.0897,0.0915 0.24572,4.09193 0.3466,8.88978 l 0.18343,8.72335 -5.28965,0.60097 c -5.92136,0.67275 -7.36696,0.67278 -11.98212,2.7e-4 z"
       id="path14" />
  </g>
</svg>
